<svg width="1000" height="135" viewBox="0 0 1000 135" fill="none" xmlns="http://www.w3.org/2000/svg">
<path fill-rule="evenodd" clip-rule="evenodd" d="M111.701 3.11715C97.7775 3.11715 86.8876 7.13778 78.2769 13.5125C86.7582 20.7799 93.1084 28.6621 97.4569 45.1653C109.449 42.9406 133.745 36.9784 144.139 3.11715H111.701Z" fill="#1877F2"/>
<path fill-rule="evenodd" clip-rule="evenodd" d="M88.3289 42.7985C80.4699 20.5084 61.0125 4.34497 35.1187 3.21509C34.6796 3.15307 0 3.11801 0 3.11801C11.6362 42.3131 51.3404 45.2524 51.3404 45.2524V107.892H98.6422C98.6422 107.892 96.1232 64.9053 88.3289 42.7985Z" fill="#1877F2"/>
<path fill-rule="evenodd" clip-rule="evenodd" d="M222.632 19.389H190.693V4.2934H271.874V19.389H239.932V107.894H222.632V19.389Z" fill="#062940"/>
<path fill-rule="evenodd" clip-rule="evenodd" d="M309.581 47.2117C298.637 47.2117 289.027 56.9815 289.027 80.0698V107.893H272.907V33.2999H289.027V47.5083C293.02 38.6284 302.778 32.1161 311.798 32.1161C314.608 32.1161 317.86 32.561 320.08 33.4482L319.191 48.9887C316.529 47.8049 312.981 47.2117 309.581 47.2117" fill="#062940"/>
<path fill-rule="evenodd" clip-rule="evenodd" d="M328.51 107.894H344.627V33.3003H328.51V107.894ZM326.145 10.5087C326.145 4.58692 330.582 0 336.496 0C342.558 0 347.143 4.58692 347.143 10.5087C347.143 16.2794 342.558 20.869 336.496 20.869C330.582 20.869 326.145 16.2794 326.145 10.5087V10.5087Z" fill="#062940"/>
<path fill-rule="evenodd" clip-rule="evenodd" d="M419.005 70.5984C419.005 55.7967 410.427 46.1779 397.417 46.1779C384.404 46.1779 375.828 55.7967 375.828 70.5984C375.828 85.249 384.404 95.0188 397.417 95.0188C410.427 95.0188 419.005 85.249 419.005 70.5984V70.5984ZM360.743 33.3015H376.863V42.7719C381.004 36.7046 389.727 32.1177 400.079 32.1177C422.112 32.1177 435.122 48.1004 435.122 70.5982C435.122 93.0933 421.519 109.079 399.192 109.079C390.169 109.079 381.446 105.231 376.863 99.3089V134.831H360.743V33.3015Z" fill="#062940"/>
<path fill-rule="evenodd" clip-rule="evenodd" d="M447.105 107.891H463.222V3.10674H447.105V107.891Z" fill="#062940"/>
<path fill-rule="evenodd" clip-rule="evenodd" d="M531.242 62.1605C530.207 52.0968 523.553 44.8456 511.722 44.8456C501.52 44.8456 494.275 51.0613 491.909 62.1605H531.242ZM548.099 74.4462H491.169C492.648 87.3225 500.93 95.3125 512.757 95.3125C522.518 95.3125 529.466 90.7256 531.39 82.5846L546.62 86.4326C542.627 100.789 529.911 109.076 512.463 109.076C488.803 109.076 475.348 90.7256 475.348 70.5982C475.348 50.468 488.065 32.1177 511.722 32.1177C535.676 32.1177 548.393 49.5809 548.393 67.7856C548.393 70.0049 548.248 73.1141 548.099 74.4462V74.4462Z" fill="#062940"/>
<path fill-rule="evenodd" clip-rule="evenodd" d="M585.806 4.29254H603.699L625.583 87.4692L647.913 4.29254H666.988L689.169 87.4692L711.199 4.29254H729.094L698.631 107.893H680.297L657.523 28.8613L634.604 107.893H616.563L585.806 4.29254Z" fill="#062940"/>
<path fill-rule="evenodd" clip-rule="evenodd" d="M737.972 3.10745H754.092V46.1776C759.267 36.8527 767.991 32.1175 778.487 32.1175C795.345 32.1175 806.437 42.6235 806.437 58.9056V107.892H790.318V62.6053C790.318 52.6899 784.107 46.6198 774.053 46.6198C761.633 46.6198 754.092 57.4251 754.092 75.6299V107.892H737.972V3.10745Z" fill="#062940"/>
<path fill-rule="evenodd" clip-rule="evenodd" d="M866.915 75.7767V72.6702L852.719 74.2962C840.593 75.6283 834.382 80.0697 834.382 86.582C834.382 92.501 839.264 96.6457 846.805 96.6457C859.374 96.6457 866.766 87.9141 866.915 75.7767M882.738 61.4198V107.893H866.915V96.4972C862.626 104.045 853.457 109.077 843.551 109.077C828.765 109.077 818.562 99.7547 818.562 87.024C818.562 72.3734 829.948 64.529 852.867 62.1614L866.915 60.6809V59.6454C866.915 50.4689 860.556 44.8438 850.798 44.8438C841.778 44.8438 835.42 50.1723 834.382 59.0522L819.893 56.3906C822.259 41.7373 834.975 32.1185 850.798 32.1185C869.725 32.1185 882.738 42.7728 882.738 61.4198" fill="#062940"/>
<path fill-rule="evenodd" clip-rule="evenodd" d="M898.709 107.891H914.825V3.10674H898.709V107.891Z" fill="#062940"/>
<path fill-rule="evenodd" clip-rule="evenodd" d="M982.849 62.1605C981.814 52.0968 975.16 44.8456 963.329 44.8456C953.127 44.8456 945.882 51.0613 943.516 62.1605H982.849ZM999.706 74.4462H942.775C944.255 87.3225 952.536 95.3125 964.364 95.3125C974.125 95.3125 981.073 90.7256 982.997 82.5846L998.227 86.4326C994.234 100.789 981.518 109.076 964.07 109.076C940.41 109.076 926.955 90.7256 926.955 70.5982C926.955 50.468 939.672 32.1177 963.329 32.1177C987.283 32.1177 1000 49.5809 1000 67.7856C1000 70.0049 999.854 73.1141 999.706 74.4462V74.4462Z" fill="#062940"/>
</svg>
